<?xml version="1.0" encoding="UTF-8"?><svg id="Capa_2" xmlns="http://www.w3.org/2000/svg" viewBox="0 0 67.35 56.86"><defs><style>.cls-1{fill:none;stroke:#fff;stroke-miterlimit:10;}</style></defs><g id="Capa_1-2"><g><polyline class="cls-1" points="43.85 50.64 .5 50.64 .5 .5 63.72 .5 63.72 34.56"/><line class="cls-1" x1="21.21" y1="8.13" x2="56.39" y2="8.13"/><line class="cls-1" x1="7.67" y1="8.13" x2="9.22" y2="8.13"/><line class="cls-1" x1="12.04" y1="8.13" x2="17.53" y2="8.13"/><circle class="cls-1" cx="53.77" cy="43.28" r="13.08"/><line class="cls-1" x1="13.07" y1="44.26" x2="13.07" y2="34.09"/><line class="cls-1" x1="22.68" y1="44.26" x2="22.68" y2="30.36"/><line class="cls-1" x1="31.4" y1="44.26" x2="31.4" y2="20.8"/><line class="cls-1" x1="48.95" y1="31.17" x2="48.95" y2="17.79"/><line class="cls-1" x1="40.69" y1="27.96" x2="40.69" y2="43.28"/><path class="cls-1" d="M60.47,44.44c-.55,3.2-3.34,5.64-6.7,5.64s-6.15-2.44-6.7-5.64"/><path class="cls-1" d="M47.06,42.16c.53-3.22,3.33-5.68,6.71-5.68s6.15,2.44,6.7,5.64"/><polyline class="cls-1" points="48.94 41.81 45.66 41.17 46.3 37.89"/><polyline class="cls-1" points="57.32 45.76 60.62 45.2 61.18 48.5"/></g></g></svg>