<?xml version="1.0" encoding="UTF-8"?><svg id="Capa_2" xmlns="http://www.w3.org/2000/svg" viewBox="0 0 51.54 43.81"><defs><style>.cls-1{fill:none;stroke:#fff;stroke-miterlimit:10;}</style></defs><g id="Capa_1-2"><g><g><circle class="cls-1" cx="34.75" cy="27.03" r="16.28"/><g><line class="cls-1" x1="39.3" y1="26.75" x2="43.86" y2="23.33"/><line class="cls-1" x1="36.75" y1="27.11" x2="32.69" y2="25.94"/><line class="cls-1" x1="26.97" y1="35.43" x2="30.61" y2="27.05"/><line class="cls-1" x1="22.89" y1="38.18" x2="24.98" y2="37.37"/><path class="cls-1" d="M26.17,38.02c.78,0,1.42-.63,1.42-1.42s-.63-1.42-1.42-1.42-1.42,.63-1.42,1.42,.63,1.42,1.42,1.42Z"/><path class="cls-1" d="M31.29,27.22c.78,0,1.42-.63,1.42-1.42s-.63-1.42-1.42-1.42-1.42,.63-1.42,1.42,.63,1.42,1.42,1.42Z"/><path class="cls-1" d="M36.69,27.51c0,.78,.63,1.42,1.42,1.42s1.42-.63,1.42-1.42-.63-1.42-1.42-1.42-1.42,.63-1.42,1.42Z"/><path class="cls-1" d="M44.92,23.81c.78,0,1.42-.63,1.42-1.42s-.63-1.42-1.42-1.42-1.42,.63-1.42,1.42,.63,1.42,1.42,1.42Z"/></g></g><circle class="cls-1" cx="16.74" cy="7.72" r="7.22"/><path class="cls-1" d="M19.91,20.35H6.1c-3.09,0-5.6,2.51-5.6,5.6v10.64H21.58"/></g></g></svg>