<?xml version="1.0" encoding="UTF-8"?><svg id="Capa_2" xmlns="http://www.w3.org/2000/svg" viewBox="0 0 63.19 50.32"><defs><style>.cls-1{stroke-linecap:square;}.cls-1,.cls-2{fill:none;stroke:#fff;stroke-miterlimit:10;}</style></defs><g id="Capa_1-2"><g><rect class="cls-1" x=".5" y=".5" width="62.19" height="49.32"/><line class="cls-2" x1="20.87" y1="8.01" x2="55.47" y2="8.01"/><line class="cls-2" x1="7.56" y1="8.01" x2="9.08" y2="8.01"/><line class="cls-2" x1="11.85" y1="8.01" x2="17.25" y2="8.01"/><circle class="cls-2" cx="32.63" cy="27.88" r="3.59"/><g><path class="cls-2" d="M32.63,19.5c4.63,0,8.38,3.75,8.38,8.38"/><path class="cls-2" d="M32.63,36.27c-4.63,0-8.38-3.75-8.38-8.38"/><path class="cls-2" d="M41.02,27.88c0,4.63-3.75,8.38-8.38,8.38"/><path class="cls-2" d="M32.63,19.5c-4.63,0-8.38,3.75-8.38,8.38"/><line class="cls-2" x1="32.63" y1="19.5" x2="32.63" y2="14.71"/><line class="cls-2" x1="32.63" y1="36.27" x2="32.63" y2="41.06"/><line class="cls-2" x1="24.25" y1="27.88" x2="19.46" y2="27.88"/><line class="cls-2" x1="45.81" y1="27.88" x2="41.02" y2="27.88"/></g></g></g></svg>