<?xml version="1.0" encoding="UTF-8"?><svg id="Capa_2" xmlns="http://www.w3.org/2000/svg" viewBox="0 0 69.21 56.76"><defs><style>.cls-1{fill:none;stroke:#fff;stroke-miterlimit:10;}</style></defs><g id="Capa_1-2"><g><polyline class="cls-1" points="43.14 49.82 .5 49.82 .5 .5 62.69 .5 62.69 30.96"/><line class="cls-1" x1="13.57" y1="43.17" x2="13.57" y2="33.16"/><line class="cls-1" x1="23.02" y1="42.32" x2="23.02" y2="28.65"/><line class="cls-1" x1="31.6" y1="43.17" x2="31.6" y2="20.1"/><line class="cls-1" x1="40.15" y1="43.17" x2="40.15" y2="27.31"/><line class="cls-1" x1="48.86" y1="29.88" x2="48.86" y2="16.71"/><line class="cls-1" x1="48.86" y1="43.17" x2="48.86" y2="29.88"/><line class="cls-1" x1="20.87" y1="8.01" x2="55.47" y2="8.01"/><line class="cls-1" x1="7.56" y1="8.01" x2="9.08" y2="8.01"/><g><path class="cls-1" d="M54.84,56.26c-7.65,0-13.87-6.22-13.87-13.87s6.22-13.87,13.87-13.87,13.87,6.22,13.87,13.87-6.22,13.87-13.87,13.87Zm0-27.28c-7.39,0-13.41,6.02-13.41,13.41s6.02,13.41,13.41,13.41,13.41-6.02,13.41-13.41-6.02-13.41-13.41-13.41Z"/><path class="cls-1" d="M54.84,56.26c-2.38,0-4.61-2.25-5.95-6.01-.02-.06-.02-.12,.01-.18,.03-.06,.08-.1,.14-.12,.42-.13,.74-.5,.82-.94,.06-.34-.04-.7-.27-.96-.23-.27-.56-.42-.9-.42-.1,0-.19,0-.27,.03-.06,.01-.12,0-.18-.03-.05-.03-.09-.09-.1-.15-.33-1.62-.5-3.33-.5-5.09,0-1.88,.19-3.68,.56-5.37,.01-.06,.05-.11,.1-.14,.05-.03,.11-.04,.17-.03,.71,.16,1.36-.3,1.47-.96,0-.06,.02-.13,.02-.19,0-.52-.33-.97-.81-1.13-.06-.02-.11-.06-.13-.12-.03-.06-.03-.12,0-.18,1.37-3.65,3.5-5.75,5.85-5.75s4.73,2.36,6.06,6.33c.08,.24,.16,.49,.23,.74,.02,.03,.03,.07,.03,.11,.58,2.03,.89,4.35,.89,6.7,0,1.75-.17,3.46-.5,5.08-.01,.06-.05,.11-.1,.15-.05,.03-.12,.04-.18,.03-.08-.02-.17-.03-.27-.03-.66,0-1.19,.53-1.19,1.19,0,.52,.34,.98,.83,1.14,.06,.02,.11,.06,.14,.12,.03,.06,.03,.12,.01,.18-1.34,3.77-3.57,6.02-5.96,6.02Zm-5.44-5.96c1.28,3.45,3.3,5.5,5.44,5.5s4.17-2.05,5.45-5.51c-.57-.27-.93-.84-.93-1.49,0-.91,.74-1.64,1.65-1.64,.05,0,.1,0,.14,0,.3-1.53,.44-3.13,.44-4.78,0-2.25-.29-4.47-.83-6.43-1.93,.35-3.89,.52-5.82,.53h-.07c-1.51,0-3.03-.1-4.54-.31-.22,.73-.93,1.23-1.74,1.15-.33,1.59-.5,3.29-.5,5.06,0,1.65,.15,3.26,.45,4.78,.05,0,.1,0,.15,0,.48,0,.94,.21,1.25,.58,.31,.37,.45,.86,.37,1.33-.09,.53-.44,.99-.91,1.22Zm5.48-14.27c1.91,0,3.85-.17,5.76-.51-.05-.18-.11-.36-.17-.53-1.26-3.76-3.37-6.01-5.63-6.01-2.08,0-4.06,1.95-5.35,5.24,.55,.28,.91,.84,.91,1.47v.03c1.49,.2,2.99,.31,4.47,.31h0Z"/><path class="cls-1" d="M68.48,42.62h-27.28c-.13,0-.23-.1-.23-.23s.1-.23,.23-.23h27.28c.13,0,.23,.1,.23,.23s-.1,.23-.23,.23Z"/><path class="cls-1" d="M54.84,56.26c-.13,0-.23-.1-.23-.23V28.75c0-.13,.1-.23,.23-.23s.23,.1,.23,.23v27.28c0,.13-.1,.23-.23,.23Z"/><path class="cls-1" d="M48.76,37.34c-.91,0-1.65-.74-1.65-1.64,0-.04,0-.07,0-.11-1.13-.26-2.27-.59-3.4-.97-.12-.04-.18-.17-.14-.29,.04-.12,.17-.19,.29-.14,1.11,.37,2.24,.69,3.35,.95,.23-.64,.85-1.09,1.55-1.09,.91,0,1.65,.74,1.65,1.65v.03c5.14,.7,10.33,.19,15.42-1.54,.12-.04,.25,.02,.29,.14,.04,.12-.02,.25-.14,.29-5.17,1.75-10.43,2.28-15.64,1.56-.21,.68-.84,1.16-1.58,1.16Zm-1.16-1.88c-.02,.08-.03,.16-.03,.24,0,.65,.53,1.19,1.19,1.19,.58,0,1.08-.43,1.17-.99h0c0-.06,.02-.13,.02-.19,0-.66-.53-1.19-1.19-1.19-.56,0-1.05,.4-1.16,.95h0Z"/><path class="cls-1" d="M65.9,50.32s-.05,0-.07-.01c-1.18-.4-2.35-.73-3.48-.99-.12-.03-.2-.15-.17-.27,.03-.12,.15-.2,.27-.17,1.15,.26,2.34,.6,3.53,1.01,.12,.04,.18,.17,.14,.29-.03,.1-.12,.16-.22,.16Zm-22.11,0c-.1,0-.19-.06-.22-.16-.04-.12,.02-.25,.14-.29,1.18-.4,2.37-.73,3.53-1,.12-.03,.25,.05,.27,.17,.03,.12-.05,.25-.17,.27-1.14,.26-2.32,.59-3.48,.99-.02,0-.05,.01-.07,.01Zm6.29-1.52c-.11,0-.21-.08-.23-.2-.02-.13,.07-.24,.19-.26,3.2-.47,6.43-.47,9.6,0,.13,.02,.21,.13,.19,.26-.02,.13-.13,.21-.26,.19-3.12-.46-6.31-.45-9.46,0-.01,0-.02,0-.03,0Z"/><path class="cls-1" d="M61.01,50.45c-.91,0-1.65-.74-1.65-1.65s.74-1.64,1.65-1.64c.48,0,.94,.21,1.25,.58,.31,.37,.45,.86,.37,1.33-.13,.79-.82,1.38-1.62,1.38Zm0-2.83c-.66,0-1.19,.53-1.19,1.19s.53,1.19,1.19,1.19c.58,0,1.08-.43,1.17-.99,.06-.34-.04-.7-.27-.96-.23-.27-.56-.42-.9-.42Z"/><path class="cls-1" d="M48.68,50.46c-.91,0-1.65-.74-1.65-1.65s.74-1.64,1.65-1.64c.48,0,.94,.21,1.25,.58,.31,.37,.45,.86,.37,1.33-.13,.8-.82,1.38-1.63,1.38Zm0-2.83c-.66,0-1.19,.53-1.19,1.19s.53,1.19,1.19,1.19c.58,0,1.08-.42,1.17-1,.06-.34-.04-.7-.27-.96-.23-.27-.56-.42-.9-.42Z"/></g><line class="cls-1" x1="7.56" y1="8.01" x2="9.08" y2="8.01"/><line class="cls-1" x1="11.85" y1="8.01" x2="17.25" y2="8.01"/></g></g></svg>