<?xml version="1.0" encoding="UTF-8"?><svg id="Capa_2" xmlns="http://www.w3.org/2000/svg" viewBox="0 0 63.37 54"><defs><style>.cls-1{fill:none;stroke:#fff;stroke-miterlimit:10;}</style></defs><g id="Capa_1-2"><g><circle class="cls-1" cx="32.86" cy="8.65" r="8.15"/><path class="cls-1" d="M45.61,41.27h3.56v-7.65c0-5.91-4.79-10.7-10.7-10.7h-13.25c-5.91,0-10.7,4.79-10.7,10.7v7.65h3.26"/><circle class="cls-1" cx="52.6" cy="19.79" r="6.57"/><path class="cls-1" d="M43.96,46.08h18.91v-6.16c0-4.76-3.86-8.62-8.62-8.62h-5.34"/><g><circle class="cls-1" cx="31.69" cy="39.47" r="14.03"/><g><line class="cls-1" x1="31.69" y1="32.91" x2="31.69" y2="46.04"/><line class="cls-1" x1="25.13" y1="39.47" x2="38.26" y2="39.47"/></g></g><circle class="cls-1" cx="10.77" cy="19.79" r="6.57"/><path class="cls-1" d="M19.41,46.08H.5v-6.16c0-4.76,3.86-8.62,8.62-8.62h5.34"/></g></g></svg>