<?xml version="1.0" encoding="UTF-8"?><svg id="Capa_2" xmlns="http://www.w3.org/2000/svg" viewBox="0 0 57.96 57.48"><defs><style>.cls-1{fill:none;stroke:#fff;stroke-miterlimit:10;}</style></defs><g id="Capa_1-2"><g><circle class="cls-1" cx="37.29" cy="20.67" r="20.17"/><line class="cls-1" x1="37.29" y1="40.84" x2="37.29" y2="57.48"/><g><line class="cls-1" x1="39.46" y1="21.27" x2="44.02" y2="17.85"/><line class="cls-1" x1="36.91" y1="21.63" x2="32.86" y2="20.47"/><line class="cls-1" x1="27.13" y1="29.95" x2="30.77" y2="21.57"/><line class="cls-1" x1="17.72" y1="34.79" x2="25.15" y2="31.9"/><line class="cls-1" x1="15.68" y1="34.29" x2="12.05" y2="29.22"/><line class="cls-1" x1="10.36" y1="29.55" x2=".42" y2="45.41"/><path class="cls-1" d="M15.06,35.46c0,.78,.63,1.42,1.42,1.42s1.42-.63,1.42-1.42-.63-1.42-1.42-1.42-1.42,.63-1.42,1.42Z"/><path class="cls-1" d="M11,29.7c.78,0,1.42-.63,1.42-1.42s-.63-1.42-1.42-1.42-1.42,.63-1.42,1.42,.63,1.42,1.42,1.42Z"/><path class="cls-1" d="M26.34,32.54c.78,0,1.42-.63,1.42-1.42s-.63-1.42-1.42-1.42-1.42,.63-1.42,1.42,.63,1.42,1.42,1.42Z"/><path class="cls-1" d="M31.45,21.75c.78,0,1.42-.63,1.42-1.42s-.63-1.42-1.42-1.42-1.42,.63-1.42,1.42,.63,1.42,1.42,1.42Z"/><path class="cls-1" d="M36.85,22.04c0,.78,.63,1.42,1.42,1.42s1.42-.63,1.42-1.42-.63-1.42-1.42-1.42-1.42,.63-1.42,1.42Z"/><path class="cls-1" d="M45.09,18.34c.78,0,1.42-.63,1.42-1.42s-.63-1.42-1.42-1.42-1.42,.63-1.42,1.42,.63,1.42,1.42,1.42Z"/></g><path class="cls-1" d="M36.41,4.88c-7.85,0-14.22,6.37-14.22,14.22"/></g></g></svg>