<?xml version="1.0" encoding="UTF-8"?><svg id="Capa_2" xmlns="http://www.w3.org/2000/svg" viewBox="0 0 57.32 50"><defs><style>.cls-1{fill:none;stroke:#fff;stroke-miterlimit:10;}</style></defs><g id="Capa_1-2"><g><g><path class="cls-1" d="M25,.5c7.3,0,13.85,3.19,18.34,8.26"/><path class="cls-1" d="M43.9,40.59c3.43-4.16,5.52-9.47,5.6-15.26"/><path class="cls-1" d="M25,49.5c-7.61,0-14.41-3.47-18.9-8.91"/><path class="cls-1" d="M.5,25c0,5.92,2.1,11.35,5.6,15.59"/><path class="cls-1" d="M25,49.5c7.61,0,14.41-3.47,18.9-8.91"/><path class="cls-1" d="M25,.5C17.39,.5,10.59,3.97,6.1,9.41"/><path class="cls-1" d="M6.1,9.41C2.6,13.65,.5,19.08,.5,25"/><path class="cls-1" d="M25,.5c4.84,0,9.09,4.3,11.6,10.83"/><path class="cls-1" d="M37.08,37.34c1.05-3.15,1.72-6.74,1.88-10.58"/><path class="cls-1" d="M25,49.5c5.16,0,9.65-4.89,12.08-12.16"/><path class="cls-1" d="M25,49.5c-5.16,0-9.65-4.89-12.08-12.16"/><path class="cls-1" d="M25,.5c-5.16,0-9.65,4.89-12.08,12.16"/><path class="cls-1" d="M12.92,37.34c-1.21-3.63-1.92-7.83-1.92-12.34"/><path class="cls-1" d="M12.92,12.66c-1.21,3.63-1.92,7.83-1.92,12.34"/><line class="cls-1" x1="25" y1="14.5" x2="25" y2="25"/><line class="cls-1" x1="25" y1="35.5" x2="25" y2="25"/><line class="cls-1" x1="25" y1=".5" x2="25" y2="14.5"/><line class="cls-1" x1="25" y1="49.5" x2="25" y2="35.5"/><path class="cls-1" d="M35.11,13.24c-3.08,.81-6.5,1.26-10.11,1.26"/><path class="cls-1" d="M6.1,9.41c1.89,1.31,4.22,2.4,6.82,3.25"/><path class="cls-1" d="M6.1,9.41h0"/><path class="cls-1" d="M25,14.5c-4.4,0-8.51-.68-12.08-1.84"/><path class="cls-1" d="M43.9,40.59c-1.89-1.31-4.22-2.4-6.82-3.25"/><path class="cls-1" d="M43.9,40.59h0"/><path class="cls-1" d="M12.92,37.34c3.57-1.16,7.68-1.84,12.08-1.84"/><path class="cls-1" d="M25,35.5c4.4,0,8.51,.68,12.08,1.84"/><path class="cls-1" d="M12.92,37.34c-2.6,.85-4.92,1.94-6.82,3.25"/><path class="cls-1" d="M6.1,40.59h0"/><line class="cls-1" x1="25" y1="25" x2="11" y2="25"/><line class="cls-1" x1="36.5" y1="25" x2="25" y2="25"/><line class="cls-1" x1=".5" y1="25" x2="11" y2="25"/></g><g><circle class="cls-1" cx="43.17" cy="18.25" r="9.49"/><line class="cls-1" x1="50.76" y1="23.96" x2="57.01" y2="28.67"/></g><line class="cls-1" x1="43.17" y1="13.82" x2="43.17" y2="22.68"/><line class="cls-1" x1="38.74" y1="18.25" x2="47.6" y2="18.25"/></g></g></svg>