<?xml version="1.0" encoding="UTF-8"?><svg id="Capa_2" xmlns="http://www.w3.org/2000/svg" viewBox="0 0 53.26 53.71"><defs><style>.cls-1,.cls-2{stroke-linecap:square;}.cls-1,.cls-2,.cls-3{fill:none;stroke:#fff;}.cls-1,.cls-3{stroke-miterlimit:10;}.cls-2{stroke-linejoin:round;}</style></defs><g id="Capa_1-2"><g><g><path class="cls-3" d="M43.61,38.38c2.88-3.94,4.57-8.79,4.57-14.04C48.18,11.17,37.51,.5,24.34,.5S.5,11.17,.5,24.34s10.67,23.84,23.84,23.84c4.79,0,9.25-1.41,12.99-3.85"/><path class="cls-1" d="M33.32,13.95s-.09,0-.14,0c-4.42,0-8.05,3.35-8.51,7.64,0,.06-.09,.06-.1,0-.46-4.3-4.09-7.64-8.51-7.64-.3,0-.59,.02-.88,.04-5.88,.6-8.14,8.07-3.86,12.15l13.3,12.67,13.27-12.64c4.52-4.31,1.67-12.12-4.57-12.22Z"/></g><polygon class="cls-2" points="39.91 52.06 51.82 40.65 35.98 36.04 39.91 52.06"/><line class="cls-2" x1="45.9" y1="46.34" x2="52.56" y2="53"/></g></g></svg>