<?xml version="1.0" encoding="UTF-8"?><svg id="Capa_2" xmlns="http://www.w3.org/2000/svg" viewBox="0 0 80.5 54"><defs><style>.cls-1{stroke-linecap:square;}.cls-1,.cls-2{fill:none;stroke:#fff;stroke-miterlimit:10;}</style></defs><g id="Capa_1-2"><g><path class="cls-1" d="M25.65,27c3.15,2.77,5.13,6.84,5.13,11.36,0,8.36-6.78,15.14-15.14,15.14S.5,46.72,.5,38.36c0-4.52,1.98-8.58,5.13-11.36L18.38,6.18c1.17-3.31,4.32-5.68,8.03-5.68,4.7,0,8.52,3.81,8.52,8.52"/><path class="cls-1" d="M45.57,9.02c0-4.7,3.81-8.52,8.52-8.52,3.71,0,6.86,2.37,8.03,5.68l12.74,20.82c3.15,2.77,5.13,6.84,5.13,11.36,0,8.36-6.78,15.14-15.14,15.14s-15.14-6.78-15.14-15.14c0-4.53,1.99-8.59,5.13-11.36"/><path class="cls-1" d="M47.98,17.54c-1.26-.7-3.26-1.59-5.84-1.89-4.62-.55-8.2,1.13-9.63,1.89"/><circle class="cls-1" cx="15.64" cy="38.36" r="15.14"/><circle class="cls-1" cx="64.86" cy="38.36" r="15.14"/><line class="cls-1" x1="30.79" y1="38.36" x2="34.57" y2="27"/><line class="cls-1" x1="49.71" y1="38.36" x2="45.93" y2="27"/><g><line class="cls-2" x1="64.86" y1="33.93" x2="64.86" y2="42.79"/><line class="cls-2" x1="60.43" y1="38.36" x2="69.29" y2="38.36"/></g><g><line class="cls-2" x1="15.64" y1="33.93" x2="15.64" y2="42.79"/><line class="cls-2" x1="11.21" y1="38.36" x2="20.07" y2="38.36"/></g></g></g></svg>