<?xml version="1.0" encoding="UTF-8"?><svg id="Capa_2" xmlns="http://www.w3.org/2000/svg" viewBox="0 0 456.79 510.99"><defs><style>.cls-1{fill:#fff;}</style></defs><g id="Capa_1-2"><g id="LQQyaQ"><g><path class="cls-1" d="M215.26,510.99c-8.07-.92-16.16-1.74-24.21-2.77-30.13-3.87-58.67-13.04-85.46-27.19-42.67-22.55-76.65-54.61-102.47-95.4-3.77-5.96-4.17-11.28-.98-17.7,23.4-47.01,60.36-77.09,111.31-89.89,4.02-1.01,8.15-1.58,12.21-2.45,8.03-1.72,14.94,.53,21.54,5.19,26.32,18.58,55.75,26.87,87.85,25.46,24.38-1.07,47.86-6.99,67.51-21.4,14.7-10.78,28.85-10.32,44.63-5.92,44.63,12.43,78.29,39.01,101.95,78.58,10.09,16.87,10.42,17.14-.41,33.46-26.65,40.16-61.26,71.56-104.65,92.92-31.69,15.6-65.19,24.46-100.49,26.42-1.14,.06-2.26,.45-3.38,.69h-24.95Z"/><path class="cls-1" d="M228.19,265.37c-72.76-.09-132.89-60.35-132.62-132.91C95.85,59.53,156.03-.4,228.6,0c72.85,.4,132.3,59.98,132.34,132.62,.04,72.74-60.06,132.84-132.76,132.75Z"/></g></g></g></svg>